<svg xmlns="http://www.w3.org/2000/svg" viewBox="0 0 1024 1024">
  <defs>
    <linearGradient id="fur" x1="0" y1="0" x2="0" y2="1">
      <stop offset="0.55" stop-color="#BDE8D2"/>
      <stop offset="1" stop-color="#93D4B6"/>
    </linearGradient>
  </defs>
  <!-- 资料员·刺猬：刺冠 + 圆眼镜，满足眯眯眼 -->
  <g id="accessories">
    <g id="spikes">
      <path d="M205 420 L245 250 L300 370 L355 235 L420 355 L480 228 L512 345 L544 228 L604 355 L669 235 L724 370 L779 250 L819 420 L819 520 L205 520 Z" fill="#8FDDB8"/>
    </g>
  </g>
  <g id="body">
    <ellipse cx="512" cy="575" rx="340" ry="285" fill="url(#fur)"/>
    <ellipse cx="512" cy="545" rx="250" ry="180" fill="#F0FAF4"/>
  </g>
  <g id="face">
    <g id="eyes">
      <path d="M370 505 Q405 470 440 505" stroke="#3A3238" stroke-width="22" fill="none" stroke-linecap="round"/>
      <path d="M584 505 Q619 470 654 505" stroke="#3A3238" stroke-width="22" fill="none" stroke-linecap="round"/>
    </g>
    <g id="glasses">
      <circle cx="405" cy="498" r="62" stroke="#3A3238" stroke-width="12" fill="none"/>
      <circle cx="619" cy="498" r="62" stroke="#3A3238" stroke-width="12" fill="none"/>
      <path d="M467 498 Q512 482 557 498" stroke="#3A3238" stroke-width="12" fill="none"/>
      <path d="M343 490 L302 478 M681 490 L722 478" stroke="#3A3238" stroke-width="12" stroke-linecap="round"/>
    </g>
    <g id="nose">
      <ellipse cx="512" cy="575" rx="26" ry="20" fill="#3A3238"/>
    </g>
    <g id="mouth">
      <path d="M482 612 Q512 636 542 612" stroke="#3A3238" stroke-width="12" fill="none" stroke-linecap="round"/>
    </g>
  </g>
  <g id="deco">
    <ellipse cx="320" cy="650" rx="50" ry="28" fill="#FFB3C1" opacity="0.5"/>
    <ellipse cx="704" cy="650" rx="50" ry="28" fill="#FFB3C1" opacity="0.5"/>
  </g>
</svg>
