<?xml version="1.0" encoding="UTF-8"?>
<svg xmlns="http://www.w3.org/2000/svg" viewBox="0 0 640 96" role="img" width="640" height="96">
<title>方案 B · 豆形全身 · 64px 混排</title>
<style>text{font-family:ui-sans,system-ui,"PingFang SC","Microsoft YaHei",sans-serif}</style>
<rect width="640" height="96" fill="#FFFFFF" rx="12"/>
<text x="12" y="18" font-size="9" fill="#888" font-weight="700">64px 圆形头像混排 · B · 同条件可比</text>
<g transform="translate(24,24)"><circle cx="32" cy="32" r="32" fill="#F5F5F3" stroke="#E8E0D8"/><g transform="translate(0,0)"><circle cx="32" cy="32" r="28" fill="#111"/><path d="M12 44 L52 44 Q54 18 32 10 Q10 18 12 44 Z" fill="#111"/><circle cx="20" cy="14" r="4" fill="#111"/><circle cx="44" cy="14" r="4" fill="#111"/></g></g>
<g transform="translate(144,24)"><circle cx="32" cy="32" r="32" fill="#F5F5F3" stroke="#E8E0D8"/><g transform="translate(0,0)"><circle cx="32" cy="32" r="28" fill="#111"/><ellipse cx="22" cy="16" rx="5" ry="11" fill="#111"/><ellipse cx="42" cy="16" rx="5" ry="11" fill="#111"/><path d="M14 44 L50 44 Q50 20 32 14 Q14 20 14 44 Z" fill="#111"/></g></g>
<g transform="translate(264,24)"><circle cx="32" cy="32" r="32" fill="#F5F5F3" stroke="#E8E0D8"/><g transform="translate(0,0)"><circle cx="32" cy="32" r="28" fill="#111"/><path d="M14 18 L17 10 L22 16 Z" fill="#111"/><path d="M42 16 L47 10 L50 18 Z" fill="#111"/><path d="M14 44 L50 44 Q50 20 32 14 Q14 20 14 44 Z" fill="#111"/></g></g>
<g transform="translate(384,24)"><circle cx="32" cy="32" r="32" fill="#F5F5F3" stroke="#E8E0D8"/><g transform="translate(0,0)"><circle cx="32" cy="32" r="28" fill="#111"/><path d="M16 16 L19 7 L24 14 Z" fill="#111"/><path d="M40 14 L45 7 L48 16 Z" fill="#111"/><path d="M14 44 L50 44 Q50 20 32 14 Q14 20 14 44 Z" fill="#111"/></g></g>
<g transform="translate(504,24)"><circle cx="32" cy="32" r="32" fill="#F5F5F3" stroke="#E8E0D8"/><g transform="translate(0,0)"><circle cx="32" cy="32" r="28" fill="#111"/><path d="M10 26 Q32 8 54 26 L54 30 L10 30 Z" fill="#111"/><ellipse cx="32" cy="30" rx="14" ry="12" fill="#111"/></g></g>
<text x="12" y="88" font-size="7.5" fill="#AAA">熊 / 兔 / 鸮 / 猫 / 刺猬 · 纯黑剪影 · 64px 验证</text>
</svg>