<?xml version="1.0" encoding="UTF-8"?>
<svg xmlns="http://www.w3.org/2000/svg" viewBox="0 0 640 96" role="img" width="640" height="96">
<title>L2 · 墨夜扁平 · 64px 混排</title>
<style>text{font-family:ui-sans,system-ui,"PingFang SC","Microsoft YaHei",sans-serif}</style>

<rect width="640" height="96" fill="#FFFFFF" rx="12"/>
<text x="12" y="18" font-size="9" fill="#888" font-weight="700">L2 · 墨夜扁平 · 64px 混排 · 真实 64px · 同锚点A</text>
<g transform="translate(24,24)"><circle cx="32" cy="32" r="32" fill="#F5F5F3" stroke="#E8E0D8" stroke-width="0.7"/><g><circle cx="32" cy="32" r="28" fill="#121820"/>
        <circle cx="20" cy="18" r="5.2" fill="#121820"/><circle cx="44" cy="18" r="5.2" fill="#121820"/>
        <circle cx="32" cy="28" r="15" fill="#121820"/>
        <circle cx="26" cy="27" r="2.6" fill="#FFF8E8"/><circle cx="38" cy="27" r="2.6" fill="#FFF8E8"/><circle cx="26" cy="27.6" r="1.2" fill="#121820"/><circle cx="38" cy="27.6" r="1.2" fill="#121820"/><ellipse cx="32" cy="33" rx="2.8" ry="1.8" fill="#FFF8E8"/><circle cx="48" cy="29" r="2.2" fill="#E85D26"/></g></g>
<g transform="translate(144,24)"><circle cx="32" cy="32" r="32" fill="#F5F5F3" stroke="#E8E0D8" stroke-width="0.7"/><g><circle cx="32" cy="32" r="28" fill="#121820"/>
        <ellipse cx="23" cy="14" rx="4.8" ry="13" fill="#121820"/><ellipse cx="41" cy="14" rx="4.8" ry="13" fill="#121820"/>
        <circle cx="32" cy="28" r="12.5" fill="#121820"/>
        <circle cx="27" cy="27" r="2.4" fill="#FFF8E8"/><circle cx="37" cy="27" r="2.4" fill="#FFF8E8"/><circle cx="27" cy="27.5" r="1.2" fill="#121820"/><circle cx="37" cy="27.5" r="1.2" fill="#121820"/><ellipse cx="32" cy="32" rx="2.5" ry="1.8" fill="#FFF8E8"/><circle cx="44" cy="24" r="2" fill="#E85D26"/></g></g>
<g transform="translate(264,24)"><circle cx="32" cy="32" r="32" fill="#F5F5F3" stroke="#E8E0D8" stroke-width="0.7"/><g><circle cx="32" cy="32" r="28" fill="#121820"/>
        <path d="M16 14 L18.5 6 L22 13 Z" fill="#121820"/><path d="M42 13 L45.5 6 L48 14 Z" fill="#121820"/>
        <ellipse cx="32" cy="30" rx="17" ry="15" fill="#121820"/>
        <circle cx="26" cy="30" r="5.5" fill="#FFF8E8"/><circle cx="38" cy="30" r="5.5" fill="#FFF8E8"/><circle cx="26" cy="30.5" r="2" fill="#121820"/><circle cx="38" cy="30.5" r="2" fill="#121820"/><path d="M32 35 L30 38 L34 38 Z" fill="#E85D26"/><circle cx="46" cy="22" r="1.8" fill="#E85D26"/></g></g>
<g transform="translate(384,24)"><circle cx="32" cy="32" r="32" fill="#F5F5F3" stroke="#E8E0D8" stroke-width="0.7"/><g><circle cx="32" cy="32" r="28" fill="#121820"/>
        <path d="M16 16 L18 7 L22 15 Z" fill="#121820"/><path d="M42 15 L46 7 L48 16 Z" fill="#121820"/>
        <circle cx="32" cy="26" r="12.8" fill="#121820"/>
        <circle cx="27" cy="25" r="2.3" fill="#FFF8E8"/><circle cx="37" cy="25" r="2.3" fill="#FFF8E8"/><circle cx="27" cy="25.4" r="1.1" fill="#121820"/><circle cx="37" cy="25.4" r="1.1" fill="#121820"/><ellipse cx="32" cy="30" rx="2.4" ry="1.6" fill="#FFF8E8"/><circle cx="46" cy="22" r="2" fill="#E85D26"/></g></g>
<g transform="translate(504,24)"><circle cx="32" cy="32" r="32" fill="#F5F5F3" stroke="#E8E0D8" stroke-width="0.7"/><g><circle cx="32" cy="32" r="28" fill="#121820"/>
        <path d="M12 28 Q32 10 52 28 L52 31 Q32 35 12 31 Z" fill="#121820"/>
        <ellipse cx="32" cy="28" rx="14" ry="12" fill="#121820"/>
        <circle cx="27" cy="28" r="2.2" fill="#FFF8E8"/><circle cx="37" cy="28" r="2.2" fill="#FFF8E8"/><ellipse cx="32" cy="33" rx="3" ry="2" fill="#FFF8E8"/><circle cx="46" cy="22" r="2" fill="#E85D26"/></g></g>
<text x="12" y="88" font-size="7.5" fill="#AAA">熊 / 兔 / 鸮 / 猫 / 刺猬 · 64px 家族混排验证 · 外轮廓占比与 A 一致</text>
</svg>